<svg width="32" height="32" viewBox="0 0 32 32" fill="none" xmlns="http://www.w3.org/2000/svg">
<path d="M6 30H12V26H13V29H15V30H29V24H27V23H26V21H29V15H27V14H26V12H29V6H27V5H26V2H12V6H10V5H9V2H3V26H4V29H6V30Z" fill="white"/>
<g style="mix-blend-mode:multiply">
<rect x="4" y="5" width="6" height="24" fill="#FFFF00"/>
<rect x="13" y="5" width="14" height="6" fill="#FFFF00"/>
<rect x="13" y="23" width="14" height="6" fill="#FFFF00"/>
<rect x="13" y="14" width="14" height="6" fill="#FFFF00"/>
</g>
<g style="mix-blend-mode:multiply">
<rect x="6" y="6" width="6" height="24" fill="#FF00FF"/>
<rect x="15" y="6" width="14" height="6" fill="#FF00FF"/>
<rect x="15" y="24" width="14" height="6" fill="#FF00FF"/>
<rect x="15" y="15" width="14" height="6" fill="#FF00FF"/>
</g>
<g style="mix-blend-mode:multiply">
<rect x="3" y="2" width="6" height="24" fill="#00FFFF"/>
<rect x="12" y="2" width="14" height="6" fill="#00FFFF"/>
<rect x="12" y="20" width="14" height="6" fill="#00FFFF"/>
<rect x="12" y="11" width="14" height="6" fill="#00FFFF"/>
</g>
</svg>
